<?xml version="1.0" encoding="utf-8"?>
<!-- Generator: Adobe Illustrator 26.0.3, SVG Export Plug-In . SVG Version: 6.00 Build 0)  -->
<svg version="1.1" id="ART" xmlns="http://www.w3.org/2000/svg" xmlns:xlink="http://www.w3.org/1999/xlink" x="0px" y="0px"
	 viewBox="0 0 868.68 223.44" style="enable-background:new 0 0 868.68 223.44;" xml:space="preserve">
<style type="text/css">
	.st0{fill:#C6C9CA;}
</style>
<g>
	<path class="st0" d="M864.4,165.04v-1.02h-15.48v1.02h7.32v40.07l-26.63-41.09h-17.7v1.02h7.15v54.11h-7.15v1.02h15.91v-1.02h-7.74
		v-53.86l36.16,56.07h1.02v-56.32H864.4z M811.12,220.17v-16.76h-1.02c-0.09,10.72-6.72,15.74-17.61,15.74h-9.36v-27.48h2.89
		c6.47,0,10.12,3.74,10.12,9.36h1.02v-19.65h-1.02c0,5.62-3.66,9.27-10.12,9.27h-2.89v-25.61h9.02c9.87,0,13.87,5.95,13.87,13.78
		h1.11v-14.8h-40.16v1.02h7.32v54.11h-7.32v1.02H811.12z M768.16,204c0-9.78-6.21-13.53-16.42-17.19
		c-9.7-3.49-14.38-6.81-14.38-12.51s4.51-10.55,10.89-10.55c6.55,0,12.51,4.85,12.59,12.85h1.02v-13.78h-1.02
		c-0.17,1.02-1.53,1.7-2.89,1.7c-3.06,0-5.02-1.79-9.7-1.79c-8.17,0-14.72,7.32-14.72,16.42c0,9.36,5.7,13.36,13.02,16.25
		c9.28,3.57,17.27,5.36,17.27,13.95c0,5.27-4.77,11.06-13.78,11.06c-10.47,0-16.76-10.21-16.85-16.67h-1.02v17.61h1.02
		c0.17-1.45,1.45-3.32,3.92-3.32c3.23,0,6.21,3.4,12.93,3.4C762.29,221.44,768.16,211.23,768.16,204 M734.82,165.04v-1.02h-16.08
		v1.02h7.66l-12.76,28.25l-13.95-28.25h7.83v-1.02h-24.76v1.02h7.15l15.23,30.71v23.4h-7.32v1.02h23.57v-1.02h-7.4v-23.91l13.7-30.2
		H734.82z M690.37,165.04v-1.02H674.8v1.02h7.4v39.05c0,9.1-5.19,15.74-15.06,15.74c-9.44,0-13.61-4.93-13.61-15.65v-39.14h7.4
		v-1.02h-23.4v1.02h7.15v39.14c0,11.31,8,17.27,19.82,17.27c13.27,0,18.72-6.81,18.72-17.36v-39.05H690.37z M628.97,192.09
		c0,12.59-2.21,20.5-6.3,24.08c-2.64,2.3-6.13,2.98-9.61,2.98h-8.59v-54.11h8.59c3.49,0,6.98,0.68,9.61,2.98
		C626.76,171.59,628.97,180.35,628.97,192.09 M638.24,192.09c0-16-10.63-28.08-25.18-28.08H588.3v1.02h7.32v54.11h-7.32v1.02h24.76
		C627.61,220.17,638.24,208.09,638.24,192.09 M572.93,165.04v-1.02h-15.48v1.02h7.32v40.07l-26.63-41.09h-17.7v1.02h7.15v54.11
		h-7.15v1.02h15.91v-1.02h-7.74v-53.86l36.16,56.07h1.02v-56.32H572.93z M506.54,200.68h-18.12l9.02-25.18L506.54,200.68z
		 M529.46,220.17v-1.02h-6.98l-20.67-56.66h-0.85l-20.5,56.66h-6.72v1.02h15.74v-1.02h-7.83l6.3-17.44h18.89l6.29,17.44h-7.74v1.02
		H529.46z M493,165.04v-1.02h-16.08v1.02h7.74l-15.31,44.24l-18.72-44.24h7.91v-1.02h-24.16v1.02h7.15l23.74,56.32h1.19l19.4-56.32
		H493z M423.88,181.88v-17.87h-45.35v17.87h1.02c0.08-9.27,4.08-16.85,15.57-16.85h1.62v54.11h-7.32v1.02h23.57v-1.02h-7.32v-54.11
		h1.62c11.4,0,15.48,7.57,15.57,16.85H423.88z M377.54,165.04v-1.02h-15.48v1.02h7.32v40.07l-26.63-41.09h-17.7v1.02h7.15v54.11
		h-7.15v1.02h15.91v-1.02h-7.74v-53.86l36.16,56.07h1.02v-56.32H377.54z M324.25,220.17v-16.76h-1.02
		c-0.09,10.72-6.72,15.74-17.61,15.74h-9.36v-27.48h2.89c6.47,0,10.12,3.74,10.12,9.36h1.02v-19.65h-1.02
		c0,5.62-3.66,9.27-10.12,9.27h-2.89v-25.61h9.02c9.87,0,13.87,5.95,13.87,13.78h1.11v-14.8h-40.16v1.02h7.32v54.11h-7.32v1.02
		H324.25z M276.45,221.36v-19.14h-1.02c0,10.12-7.15,18.21-17.44,18.21c-3.74,0-6.98-0.68-9.7-3.23c-3.83-3.57-6.21-11.66-6.21-25.1
		c0-13.44,2.38-21.52,6.21-25.1c2.72-2.55,5.95-3.23,9.7-3.23c7.66,0,16.08,6.55,16.08,16.42h1.02v-17.27h-1.02
		c-0.17,1.02-1.79,2.04-3.49,2.04c-4,0-7.49-2.21-12.59-2.21c-14.55,0-25.18,13.27-25.18,29.35c0,16.08,10.63,29.35,25.18,29.35
		c6.72,0,10.38-2.64,13.53-2.64c2.21,0,3.74,1.45,3.91,2.55H276.45z M234.43,165.04v-1.02h-15.48v1.02h7.32v40.07l-26.63-41.09
		h-17.7v1.02h7.15v54.11h-7.15v1.02h15.91v-1.02h-7.74v-53.86l36.16,56.07h1.02v-56.32H234.43z M181.13,220.17v-1.02h-7.32v-54.11
		h7.32v-1.02h-23.57v1.02h7.4v54.11h-7.4v1.02H181.13z M158.92,165.04v-1.02h-16.08v1.02h7.74l-15.31,44.24l-18.72-44.24h7.91v-1.02
		H100.3v1.02h7.15l23.74,56.32h1.19l19.4-56.32H158.92z M93.49,165.04v-1.02H77.41v1.02h7.66l-12.76,28.25l-13.95-28.25h7.83v-1.02
		H41.42v1.02h7.15l15.23,30.71v23.4h-7.32v1.02h23.57v-1.02h-7.4v-23.91l13.7-30.2H93.49z M39.47,205.28
		c0,10.97-4.59,13.87-11.57,13.87h-7.4v-28.42h6.12C33.6,190.73,39.47,192.52,39.47,205.28 M35.81,177.03
		c0,8.93-2.13,12.68-8.76,12.68H20.5v-24.67h5.19C32.75,165.04,35.81,167.67,35.81,177.03 M48.32,205.28
		c0-9.27-8.42-15.14-18.63-15.14c6.38,0,14.63-4.85,14.63-13.1c0-8.68-8.42-13.02-17.53-13.02H4.33v1.02h7.32v54.11H4.33v1.02h26.04
		C42.28,220.17,48.32,212.76,48.32,205.28"/>
	<polygon points="864.36,69.57 799.36,69.57 799.36,6.58 797.14,6.58 797.14,69.57 732.14,69.57 732.14,71.79 797.14,71.79 
		797.14,138.8 799.36,138.8 799.36,71.79 864.36,71.79 	"/>
	<g>
		<polygon points="322.67,137.63 322.67,137.88 302.47,137.88 302.47,82.49 		"/>
		<path d="M322.76,137.88l-0.09-0.24l-20.2-55.14L273.02,2.09L272.98,2H272l-10.23,27.91L243.12,80.7l-0.05-0.04
			c-6.46-5.65-15.56-9.19-27.06-10.51l-3.5-0.36l3.48-0.42c18.93-3.37,31.66-15.24,31.66-29.52c0-19.59-18.58-33.26-45.2-33.26
			h-55.39v0.97h16.1V108.8L124.07,2.09L124.03,2h-0.98l-10.23,27.91l-39.5,107.62l-0.25,0.03c-0.68,0.09-1.34,0.15-2,0.2
			c-1,0.08-1.99,0.12-2.97,0.12H28.17L104.04,7.56l0.57-0.97h-92.8V46.9h0.98C12.97,27.27,24.5,7.56,49.98,7.56h30.73L4.27,138.85
			h102.98v-38.62h-0.98c-0.13,17.12-9.91,33.38-31.2,37.04l-0.67,0.12l16.2-44.17h45.38l16.36,44.66h-16.14v0.97h63.33v-0.97h-16.19
			V70.53h18.7c19.02,0,29.93,8.43,29.93,23.12v11.96c0,1.31,0.09,3.24,0.19,4.84v0.06l-10.04,27.37h-13.14v0.97h27.18v-0.97h-12.99
			l9.15-24.92c0.01,0.24,0.03,0.4,0.03,0.4l0.26,2.24l0.23,1.49c1.54,9.19,5.08,15.95,10.54,20.09l0.78,0.56
			c4.16,2.86,9.32,4.31,15.34,4.31c7.99,0,13.31-1.97,17.72-6.61l-0.58-0.56c-4.04,3.69-7.46,5.2-11.71,5.2
			c-7.26,0-11.06-8.73-11.06-17.34V106c0-4.4-0.65-8.51-1.94-12.24l-0.18-0.51v-0.03h33.2l16.36,44.66h-16.14v0.97h54.8v-0.97
			H322.76z M90.97,92.25l22.36-60.92l22.32,60.92H90.97z M183.35,69.54V7.57h14.27c19.06,0,29.14,11.22,29.14,32.48
			c0,22.59-5.78,29.48-24.71,29.48H183.35z M251.37,92.25l-0.1-0.24c-1.49-3.59-3.62-6.8-6.32-9.58l-0.93-0.92l-0.1-0.09
			l18.38-50.08l22.32,60.92H251.37z"/>
		<path d="M740.9,100.6c0,20.44-12.13,37.27-42.45,37.27h-22.33V71.11h8.07c15.37,0,24.05,8.82,24.05,21.44h0.98V48.3h-0.98
			c0,13.04-8.68,21.85-24.05,21.85h-8.07V7.56h23.02c23.65,0,33.15,15.62,33.15,33.26h0.98V6.58H615.19l-35.35,103.69L540.86,6.58
			H501v0.98h17.41V64.9c-3.42-34.53-29.08-61.24-61.04-61.24c-29.71,0-53.98,23.11-60.01,54.12V7.55h17.31V6.58h-54.81v0.97h17.31
			v61.99h-54.5V7.55h17.31V6.58h-54.81v0.97h17.29v74.94l20.2,55.14V70.52h54.5v67.35h-17.31v0.97h54.81v-0.97h-17.31V87.85
			c6.02,31.01,30.3,54.11,60.01,54.11c31.96,0,57.62-26.7,61.04-61.24v57.16h-18.6v0.97h38.17v-0.97h-18.6V7.59l49.92,135.08h0.61
			l45.08-132.5v127.71H597.2v0.97h144.69V100.6H740.9z M481.42,133.35c-6.46,5.61-14.15,7.62-24.06,7.62s-17.57-2.01-24.05-7.62
			c-10.31-8.81-15.76-27.66-15.76-60.55c0-32.85,5.45-51.73,15.76-60.55c6.47-5.62,14.14-7.62,24.05-7.62s17.59,2,24.06,7.62
			c10.12,8.82,15.78,27.7,15.78,60.55C497.2,105.68,491.54,124.54,481.42,133.35z M655.7,137.87h-20.5V7.56h20.5V137.87z"/>
	</g>
</g>
</svg>
